# xmcd CD database file
#
# Track frame offsets:
#	150
#	19272
#	41982
#	65520
#	91155
#	114680
#	132367
#	152465
#	169165
#	186422
#	211340
#
# Disc length: 3085 seconds
#
# Revision: 0
# Processed by: cddbd v1.5.1PL0 Copyright (c) Steve Scherf et al.
# Submitted via: CDex 1.51
#
DISCID=9a0c0b0b
DTITLE=及川光博 - 流星
DYEAR=2002
DGENRE=JPop
TTITLE0=月下美人
TTITLE1=強烈ロマンス
TTITLE2=まるごとフルーツ
TTITLE3=ベストフレンド
TTITLE4=花びらのように 〜モノローグ〜
TTITLE5=恍惚ニ死ス。
TTITLE6=シャンデリア・ラブ
TTITLE7=セルロイドの夜
TTITLE8=ヘヴンな気分
TTITLE9=流星
TTITLE10=NEON BOY
EXTD=YEAR: 2002
EXTT0=
EXTT1=
EXTT2=
EXTT3=
EXTT4=
EXTT5=
EXTT6=
EXTT7=
EXTT8=
EXTT9=
EXTT10=
PLAYORDER=
